<svg width="76" height="13" viewBox="0 0 76 13" fill="none" xmlns="http://www.w3.org/2000/svg">
    <path d="M4.8 12.16C3.616 12.16 2.67733 11.84 1.984 11.2C1.30133 10.56 0.96 9.68533 0.96 8.576V0.32H3.36V8.56C3.36 9.05067 3.48267 9.42933 3.728 9.696C3.984 9.952 4.34133 10.08 4.8 10.08C5.248 10.08 5.6 9.952 5.856 9.696C6.112 9.42933 6.24 9.05067 6.24 8.56V0.32H8.64V8.576C8.64 9.67467 8.29333 10.5493 7.6 11.2C6.91733 11.84 5.984 12.16 4.8 12.16ZM10.6978 12V9.92H13.0178V2.4H10.6978V0.32H17.7378V2.4H15.4178V9.92H17.7378V12H10.6978ZM19.5075 12V0.32H22.2115L23.2835 4C23.4008 4.384 23.4862 4.72 23.5395 5.008C23.6035 5.296 23.6408 5.49867 23.6515 5.616C23.6622 5.49867 23.6942 5.296 23.7475 5.008C23.8115 4.72 23.8968 4.384 24.0035 4L25.0595 0.32H27.7635V12H25.5715V8.8C25.5715 8.21333 25.5822 7.6 25.6035 6.96C25.6355 6.30933 25.6728 5.664 25.7155 5.024C25.7582 4.384 25.8062 3.78667 25.8595 3.232C25.9128 2.66667 25.9608 2.176 26.0035 1.76L24.6595 7.04H22.6275L21.2195 1.76C21.2728 2.15467 21.3262 2.62933 21.3795 3.184C21.4328 3.728 21.4808 4.32 21.5235 4.96C21.5768 5.58933 21.6195 6.23467 21.6515 6.896C21.6835 7.55733 21.6995 8.192 21.6995 8.8V12H19.5075ZM28.6533 12L31.5173 0.32H34.5573L37.4533 12H35.0053L34.4453 9.36H31.6613L31.1013 12H28.6533ZM32.0613 7.44H34.0293L33.4693 4.624C33.3946 4.21867 33.3146 3.81867 33.2293 3.424C33.1546 3.01867 33.0959 2.704 33.0533 2.48C33.0106 2.704 32.9519 3.01333 32.8773 3.408C32.8133 3.80267 32.7386 4.20267 32.6533 4.608L32.0613 7.44ZM41.271 12V2.56H38.311V0.32H46.631V2.56H43.671V12H41.271ZM48.1287 12V0.32H51.8887C52.7207 0.32 53.4407 0.464 54.0487 0.752C54.6567 1.04 55.1261 1.45067 55.4567 1.984C55.7981 2.51733 55.9687 3.14667 55.9687 3.872C55.9687 4.62933 55.7821 5.30667 55.4087 5.904C55.0461 6.50133 54.5501 6.93333 53.9207 7.2L56.1287 12H53.5207L51.6327 7.584H50.5127V12H48.1287ZM50.5127 5.504H51.8887C52.4221 5.504 52.8327 5.37067 53.1207 5.104C53.4194 4.83733 53.5687 4.464 53.5687 3.984C53.5687 3.48267 53.4194 3.09333 53.1207 2.816C52.8327 2.53867 52.4221 2.4 51.8887 2.4H50.5127V5.504ZM57.7865 12V9.92H60.1065V2.4H57.7865V0.32H64.8265V2.4H62.5065V9.92H64.8265V12H57.7865ZM66.2442 12L69.3802 5.968L66.4522 0.32H69.0922L70.3082 2.88C70.4256 3.11467 70.5216 3.328 70.5962 3.52C70.6816 3.712 70.7349 3.85067 70.7562 3.936C70.7776 3.85067 70.8256 3.712 70.9002 3.52C70.9749 3.328 71.0656 3.11467 71.1722 2.88L72.4202 0.32H74.9962L72.0682 5.968L75.2042 12H72.5642L71.1562 9.12C71.0496 8.88533 70.9536 8.66667 70.8682 8.464C70.7829 8.26133 70.7189 8.10667 70.6762 8C70.6442 8.10667 70.5909 8.26133 70.5162 8.464C70.4416 8.66667 70.3456 8.88533 70.2282 9.12L68.8202 12H66.2442Z" fill="#352F30"/>
</svg>
