<svg width="81" height="17" viewBox="0 0 81 17" fill="none" xmlns="http://www.w3.org/2000/svg">
    <path d="M23.2542 13.12C22.5582 13.12 21.9542 13.004 21.4422 12.772C20.9302 12.532 20.5342 12.168 20.2542 11.68C19.9742 11.184 19.8342 10.552 19.8342 9.784V4.9C19.8342 4.812 19.8622 4.74 19.9182 4.684C19.9742 4.628 20.0422 4.6 20.1222 4.6H21.2142C21.3022 4.6 21.3702 4.628 21.4182 4.684C21.4742 4.74 21.5022 4.812 21.5022 4.9V9.784C21.5022 10.44 21.6582 10.928 21.9702 11.248C22.2822 11.56 22.7102 11.716 23.2542 11.716C23.7982 11.716 24.2222 11.56 24.5262 11.248C24.8382 10.928 24.9942 10.44 24.9942 9.784V4.9C24.9942 4.812 25.0222 4.74 25.0782 4.684C25.1342 4.628 25.2062 4.6 25.2942 4.6H26.3742C26.4622 4.6 26.5302 4.628 26.5782 4.684C26.6342 4.74 26.6622 4.812 26.6622 4.9V9.784C26.6622 10.552 26.5222 11.184 26.2422 11.68C25.9702 12.168 25.5782 12.532 25.0662 12.772C24.5622 13.004 23.9582 13.12 23.2542 13.12ZM29.5888 13C29.5088 13 29.4408 12.972 29.3848 12.916C29.3288 12.86 29.3008 12.792 29.3008 12.712V4.888C29.3008 4.808 29.3288 4.74 29.3848 4.684C29.4408 4.628 29.5088 4.6 29.5888 4.6H30.7168C30.8048 4.6 30.8728 4.628 30.9208 4.684C30.9768 4.74 31.0048 4.808 31.0048 4.888V12.712C31.0048 12.792 30.9768 12.86 30.9208 12.916C30.8728 12.972 30.8048 13 30.7168 13H29.5888ZM34.0268 13C33.9388 13 33.8668 12.972 33.8108 12.916C33.7548 12.86 33.7268 12.792 33.7268 12.712V4.9C33.7268 4.812 33.7548 4.74 33.8108 4.684C33.8668 4.628 33.9388 4.6 34.0268 4.6H34.9748C35.0868 4.6 35.1708 4.632 35.2268 4.696C35.2828 4.752 35.3188 4.796 35.3348 4.828L37.6508 9.148L39.9908 4.828C40.0068 4.796 40.0428 4.752 40.0988 4.696C40.1548 4.632 40.2388 4.6 40.3508 4.6H41.2868C41.3748 4.6 41.4468 4.628 41.5028 4.684C41.5588 4.74 41.5868 4.812 41.5868 4.9V12.712C41.5868 12.792 41.5588 12.86 41.5028 12.916C41.4468 12.972 41.3748 13 41.2868 13H40.2788C40.1908 13 40.1188 12.972 40.0628 12.916C40.0148 12.86 39.9908 12.792 39.9908 12.712V7.516L38.3108 10.72C38.2708 10.792 38.2188 10.856 38.1548 10.912C38.0908 10.96 38.0068 10.984 37.9028 10.984H37.4108C37.2988 10.984 37.2108 10.96 37.1468 10.912C37.0908 10.856 37.0428 10.792 37.0028 10.72L35.3228 7.516V12.712C35.3228 12.792 35.2948 12.86 35.2388 12.916C35.1828 12.972 35.1148 13 35.0348 13H34.0268ZM43.7773 13C43.7133 13 43.6533 12.976 43.5973 12.928C43.5493 12.88 43.5253 12.82 43.5253 12.748C43.5253 12.716 43.5333 12.68 43.5493 12.64L46.4413 4.9C46.4653 4.82 46.5093 4.752 46.5733 4.696C46.6453 4.632 46.7413 4.6 46.8613 4.6H48.1693C48.2893 4.6 48.3813 4.632 48.4453 4.696C48.5093 4.752 48.5573 4.82 48.5893 4.9L51.4813 12.64C51.4893 12.68 51.4933 12.716 51.4933 12.748C51.4933 12.82 51.4693 12.88 51.4213 12.928C51.3733 12.976 51.3173 13 51.2533 13H50.2093C50.0973 13 50.0133 12.976 49.9573 12.928C49.9093 12.872 49.8773 12.82 49.8613 12.772L49.2973 11.308H45.7333L45.1693 12.772C45.1533 12.82 45.1173 12.872 45.0613 12.928C45.0133 12.976 44.9333 13 44.8213 13H43.7773ZM46.1533 9.928H48.8773L47.5093 6.22L46.1533 9.928ZM54.7107 13C54.6307 13 54.5627 12.972 54.5067 12.916C54.4507 12.86 54.4227 12.792 54.4227 12.712V6.076H52.2027C52.1227 6.076 52.0547 6.048 51.9987 5.992C51.9427 5.936 51.9147 5.868 51.9147 5.788V4.9C51.9147 4.812 51.9427 4.74 51.9987 4.684C52.0547 4.628 52.1227 4.6 52.2027 4.6H58.3227C58.4107 4.6 58.4827 4.628 58.5387 4.684C58.5947 4.74 58.6227 4.812 58.6227 4.9V5.788C58.6227 5.868 58.5947 5.936 58.5387 5.992C58.4827 6.048 58.4107 6.076 58.3227 6.076H56.1147V12.712C56.1147 12.792 56.0867 12.86 56.0307 12.916C55.9747 12.972 55.9027 13 55.8147 13H54.7107ZM60.9684 13C60.8884 13 60.8204 12.972 60.7644 12.916C60.7084 12.86 60.6804 12.792 60.6804 12.712V4.9C60.6804 4.812 60.7084 4.74 60.7644 4.684C60.8204 4.628 60.8884 4.6 60.9684 4.6H64.0764C65.0444 4.6 65.8084 4.824 66.3684 5.272C66.9284 5.72 67.2084 6.372 67.2084 7.228C67.2084 7.82 67.0604 8.312 66.7644 8.704C66.4764 9.096 66.0884 9.38 65.6004 9.556L67.3524 12.616C67.3764 12.664 67.3884 12.708 67.3884 12.748C67.3884 12.82 67.3604 12.88 67.3044 12.928C67.2564 12.976 67.2004 13 67.1364 13H66.0444C65.9084 13 65.8044 12.964 65.7324 12.892C65.6604 12.82 65.6044 12.748 65.5644 12.676L64.0164 9.832H62.3484V12.712C62.3484 12.792 62.3204 12.86 62.2644 12.916C62.2164 12.972 62.1484 13 62.0604 13H60.9684ZM62.3484 8.476H64.0404C64.5284 8.476 64.8924 8.368 65.1324 8.152C65.3724 7.928 65.4924 7.616 65.4924 7.216C65.4924 6.816 65.3724 6.504 65.1324 6.28C64.9004 6.048 64.5364 5.932 64.0404 5.932H62.3484V8.476ZM69.8826 13C69.8026 13 69.7346 12.972 69.6786 12.916C69.6226 12.86 69.5946 12.792 69.5946 12.712V4.888C69.5946 4.808 69.6226 4.74 69.6786 4.684C69.7346 4.628 69.8026 4.6 69.8826 4.6H71.0106C71.0986 4.6 71.1666 4.628 71.2146 4.684C71.2706 4.74 71.2986 4.808 71.2986 4.888V12.712C71.2986 12.792 71.2706 12.86 71.2146 12.916C71.1666 12.972 71.0986 13 71.0106 13H69.8826ZM73.5525 13C73.4805 13 73.4205 12.976 73.3725 12.928C73.3245 12.88 73.3005 12.82 73.3005 12.748C73.3005 12.724 73.3045 12.7 73.3125 12.676C73.3205 12.652 73.3285 12.628 73.3365 12.604L76.0245 8.716L73.5045 4.996C73.4805 4.948 73.4685 4.9 73.4685 4.852C73.4685 4.78 73.4925 4.72 73.5405 4.672C73.5885 4.624 73.6445 4.6 73.7085 4.6H74.9445C75.0405 4.6 75.1165 4.624 75.1725 4.672C75.2285 4.72 75.2765 4.772 75.3165 4.828L77.0805 7.42L78.8565 4.828C78.8885 4.772 78.9325 4.72 78.9885 4.672C79.0525 4.624 79.1325 4.6 79.2285 4.6H80.3925C80.4645 4.6 80.5245 4.624 80.5725 4.672C80.6205 4.72 80.6445 4.78 80.6445 4.852C80.6445 4.9 80.6285 4.948 80.5965 4.996L78.0885 8.716L80.7765 12.604C80.7925 12.628 80.8045 12.652 80.8125 12.676C80.8205 12.7 80.8245 12.724 80.8245 12.748C80.8245 12.82 80.7965 12.88 80.7405 12.928C80.6925 12.976 80.6365 13 80.5725 13H79.3005C79.2045 13 79.1285 12.976 79.0725 12.928C79.0165 12.88 78.9725 12.832 78.9405 12.784L77.0205 10.072L75.1365 12.784C75.1045 12.832 75.0605 12.88 75.0045 12.928C74.9485 12.976 74.8685 13 74.7645 13H73.5525Z"
          fill="black"/>
    <rect x="0.5" y="4.5" width="4" height="4" fill="#9FCC3E" stroke="black"/>
    <rect x="0.5" y="8.5" width="4" height="4" fill="#1CA593" stroke="black"/>
    <rect x="8.5" y="8.5" width="4" height="4" fill="#9D489D" stroke="black"/>
    <rect x="4.5" y="12.5" width="4" height="4" fill="#0E5AA8" stroke="black"/>
    <rect x="8.5" y="12.5" width="4" height="4" fill="#6C459E" stroke="black"/>
    <rect x="8.5" y="4.5" width="4" height="4" fill="#FC1693" stroke="black"/>
    <rect x="0.5" y="12.5" width="4" height="4" fill="#188CC5" stroke="black"/>
    <rect x="4.5" y="0.5" width="4" height="4" fill="#FDEEA1" stroke="black"/>
</svg>
